<svg width="40" height="40" viewBox="0 0 40 40" fill="none" xmlns="http://www.w3.org/2000/svg">
<circle cx="20" cy="20" r="19.5" fill="url(#paint0_linear_4001_1853)" stroke="url(#paint1_linear_4001_1853)"/>
<path d="M19.5584 13.2008C19.6756 13.0838 19.8344 13.018 20 13.018C20.1657 13.018 20.3245 13.0838 20.4417 13.2008L27.6834 20.4425C27.7411 20.5021 27.81 20.5497 27.8863 20.5824C27.9626 20.6152 28.0446 20.6324 28.1276 20.633C28.2106 20.6337 28.2929 20.6179 28.3697 20.5864C28.4465 20.5549 28.5162 20.5085 28.5749 20.4498C28.6335 20.3911 28.6799 20.3213 28.7113 20.2445C28.7427 20.1676 28.7585 20.0853 28.7577 20.0023C28.7569 19.9194 28.7397 19.8373 28.7069 19.7611C28.6741 19.6849 28.6264 19.6159 28.5667 19.5583L21.3259 12.3166C21.1518 12.1425 20.9451 12.0044 20.7176 11.9102C20.4901 11.816 20.2463 11.7675 20 11.7675C19.7538 11.7675 19.51 11.816 19.2825 11.9102C19.055 12.0044 18.8483 12.1425 18.6742 12.3166L11.4325 19.5583C11.3729 19.616 11.3253 19.685 11.2926 19.7612C11.2598 19.8375 11.2426 19.9195 11.242 20.0025C11.2413 20.0855 11.2571 20.1678 11.2886 20.2446C11.3201 20.3214 11.3665 20.3911 11.4252 20.4498C11.4839 20.5085 11.5537 20.5548 11.6305 20.5862C11.7074 20.6176 11.7897 20.6334 11.8727 20.6326C11.9557 20.6319 12.0377 20.6146 12.1139 20.5818C12.1901 20.549 12.2591 20.5014 12.3167 20.4416L19.5584 13.2008Z" fill="url(#paint2_linear_4001_1853)"/>
<path d="M20 14.5266L26.7992 21.3258C26.8242 21.3502 26.8494 21.3741 26.875 21.3974V26.5624C26.875 27.4249 26.175 28.1249 25.3125 28.1249H22.5C22.3342 28.1249 22.1753 28.0591 22.0581 27.9419C21.9408 27.8247 21.875 27.6657 21.875 27.4999V23.7499C21.875 23.5842 21.8092 23.4252 21.6919 23.308C21.5747 23.1908 21.4158 23.1249 21.25 23.1249H18.75C18.5842 23.1249 18.4253 23.1908 18.3081 23.308C18.1908 23.4252 18.125 23.5842 18.125 23.7499V27.4999C18.125 27.6657 18.0592 27.8247 17.9419 27.9419C17.8247 28.0591 17.6658 28.1249 17.5 28.1249H14.6875C14.2731 28.1249 13.8757 27.9603 13.5826 27.6673C13.2896 27.3743 13.125 26.9768 13.125 26.5624V21.3974L13.2008 21.3258L20 14.5266Z" fill="url(#paint3_linear_4001_1853)"/>
<defs>
<linearGradient id="paint0_linear_4001_1853" x1="20" y1="40" x2="20" y2="0" gradientUnits="userSpaceOnUse">
<stop stop-color="#171516"/>
<stop offset="0.9715" stop-color="#61615F"/>
</linearGradient>
<linearGradient id="paint1_linear_4001_1853" x1="40" y1="20.0833" x2="-1.06607e-05" y2="20.081" gradientUnits="userSpaceOnUse">
<stop stop-color="#171516"/>
<stop offset="0.5" stop-color="#67655B"/>
<stop offset="1" stop-color="#A99A7C"/>
</linearGradient>
<linearGradient id="paint2_linear_4001_1853" x1="19.9998" y1="11.7675" x2="19.9976" y2="20.6331" gradientUnits="userSpaceOnUse">
<stop stop-color="#8B6832"/>
<stop offset="1" stop-color="#FCDD9A"/>
</linearGradient>
<linearGradient id="paint3_linear_4001_1853" x1="20" y1="14.5266" x2="19.9934" y2="28.1249" gradientUnits="userSpaceOnUse">
<stop stop-color="#8B6832"/>
<stop offset="1" stop-color="#FCDD9A"/>
</linearGradient>
</defs>
</svg>
