<svg width="40" height="40" viewBox="0 0 40 40" fill="none" xmlns="http://www.w3.org/2000/svg">
<circle cx="20" cy="20" r="19.5" fill="url(#paint0_linear_4001_1860)" stroke="url(#paint1_linear_4001_1860)"/>
<path d="M15.2533 15.4838C15.0764 15.3298 14.8451 15.2516 14.6101 15.2665C14.3751 15.2814 14.1557 15.388 14 15.5631C12.9817 16.7077 12.3181 18.1192 12.0891 19.6284C11.86 21.1375 12.0751 22.6801 12.7085 24.071C13.3419 25.462 14.3668 26.6422 15.6602 27.4701C16.9535 28.2981 18.4604 28.7383 20 28.7383C21.5396 28.7383 23.0465 28.2981 24.3398 27.4701C25.6331 26.6422 26.6581 25.462 27.2915 24.071C27.9249 22.6801 28.14 21.1375 27.911 19.6284C27.6819 18.1192 27.0183 16.7077 26 15.5631C25.8442 15.388 25.6248 15.2814 25.3898 15.2665C25.1549 15.2516 24.9236 15.3298 24.7466 15.4838C24.5701 15.6382 24.4624 15.8557 24.4474 16.0886C24.4325 16.3215 24.5112 16.5508 24.6666 16.7262C25.4587 17.6164 25.9748 18.7143 26.1529 19.888C26.3311 21.0618 26.1638 22.2616 25.6711 23.3435C25.1784 24.4253 24.3814 25.3433 23.3754 25.9872C22.3695 26.6311 21.1974 26.9736 20 26.9736C18.8025 26.9736 17.6305 26.6311 16.6246 25.9872C15.6186 25.3433 14.8215 24.4253 14.3288 23.3435C13.8362 22.2616 13.6689 21.0618 13.847 19.888C14.0252 18.7143 14.5413 17.6164 15.3333 16.7262C15.4887 16.5508 15.5676 16.3215 15.5526 16.0886C15.5376 15.8557 15.4299 15.6382 15.2533 15.4838Z" fill="url(#paint2_linear_4001_1860)"/>
<path d="M20.9412 20.9118V12.4412C20.9412 12.1916 20.842 11.9522 20.6655 11.7757C20.489 11.5992 20.2496 11.5 20 11.5C19.7504 11.5 19.511 11.5992 19.3345 11.7757C19.158 11.9522 19.0588 12.1916 19.0588 12.4412V20.9118C19.0588 21.1614 19.158 21.4007 19.3345 21.5773C19.511 21.7538 19.7504 21.853 20 21.853C20.2496 21.853 20.489 21.7538 20.6655 21.5773C20.842 21.4007 20.9412 21.1614 20.9412 20.9118Z" fill="url(#paint3_linear_4001_1860)"/>
<defs>
<linearGradient id="paint0_linear_4001_1860" x1="20" y1="40" x2="20" y2="0" gradientUnits="userSpaceOnUse">
<stop stop-color="#171516"/>
<stop offset="0.9715" stop-color="#61615F"/>
</linearGradient>
<linearGradient id="paint1_linear_4001_1860" x1="40" y1="20.0833" x2="-1.06607e-05" y2="20.081" gradientUnits="userSpaceOnUse">
<stop stop-color="#171516"/>
<stop offset="0.5" stop-color="#67655B"/>
<stop offset="1" stop-color="#A99A7C"/>
</linearGradient>
<linearGradient id="paint2_linear_4001_1860" x1="20" y1="15.2647" x2="19.9944" y2="28.7383" gradientUnits="userSpaceOnUse">
<stop stop-color="#8B6832"/>
<stop offset="1" stop-color="#FCDD9A"/>
</linearGradient>
<linearGradient id="paint3_linear_4001_1860" x1="20" y1="11.5" x2="19.972" y2="21.8529" gradientUnits="userSpaceOnUse">
<stop stop-color="#8B6832"/>
<stop offset="1" stop-color="#FCDD9A"/>
</linearGradient>
</defs>
</svg>
