<svg width="24" height="24" viewBox="0 0 24 24" fill="none" xmlns="http://www.w3.org/2000/svg">
<path d="M19.8549 14.7995H18.3599C17.8689 15.3556 17.3055 15.8394 16.6917 16.2439C15.3196 17.1611 13.6801 17.6883 11.9108 17.6883C10.1414 17.6883 8.50199 17.1611 7.12987 16.2439C6.51598 15.8394 5.95267 15.3556 5.46158 14.7995H3.96663C2.77501 14.7995 1.80005 15.7745 1.80005 16.9661V19.8549C1.80005 21.0465 2.77501 22.0214 3.96663 22.0214H19.8549C21.0465 22.0214 22.0215 21.0465 22.0215 19.8549V16.9661C22.0215 15.7745 21.0465 14.7995 19.8549 14.7995ZM17.6883 19.8549H6.13322C5.73601 19.8549 5.41102 19.5299 5.41102 19.1327C5.41102 18.7355 5.73601 18.4104 6.13322 18.4104H17.6883C18.0855 18.4104 18.4105 18.7355 18.4105 19.1327C18.4105 19.5299 18.0855 19.8549 17.6883 19.8549ZM11.9108 1.8C7.9315 1.8 4.68883 5.04266 4.68883 9.02194C4.68883 11.3835 5.8299 13.4851 7.58485 14.7995C8.79091 15.7095 10.2858 16.2439 11.9108 16.2439C13.5357 16.2439 15.0306 15.7095 16.2367 14.7995C17.9917 13.4851 19.1327 11.3835 19.1327 9.02194C19.1327 5.04266 15.89 1.8 11.9108 1.8ZM11.5497 8.29972H12.2286C13.2252 8.29972 14.034 9.10858 14.034 10.1053C14.034 10.9863 13.4346 11.7085 12.633 11.8963V12.6329C12.633 13.0301 12.308 13.3551 11.9108 13.3551C11.5136 13.3551 11.1886 13.0301 11.1886 12.6329V11.9396H10.4664C10.0691 11.9396 9.7442 11.6219 9.7442 11.2174C9.7442 10.8202 10.0691 10.4952 10.4664 10.4952H12.2286C12.4308 10.4952 12.5897 10.3363 12.5897 10.1341C12.5897 9.90304 12.4308 9.74415 12.2286 9.74415H11.5497C10.5531 9.74415 9.7442 8.93529 9.7442 7.93868C9.7442 7.06481 10.3653 6.33538 11.1886 6.16928V5.41097C11.1886 5.01376 11.5136 4.68878 11.9108 4.68878C12.308 4.68878 12.633 5.01376 12.633 5.41097V6.13317H13.3118C13.709 6.13317 14.034 6.45816 14.034 6.85536C14.034 7.25256 13.709 7.57757 13.3118 7.57757H11.5497C11.3475 7.57757 11.1886 7.73646 11.1886 7.93868C11.1886 8.14089 11.3475 8.29972 11.5497 8.29972Z" fill="url(#paint0_linear_2153_1251)"/>
<defs>
<linearGradient id="paint0_linear_2153_1251" x1="11.9108" y1="1.8" x2="11.9008" y2="22.0214" gradientUnits="userSpaceOnUse">
<stop stop-color="#8B6832"/>
<stop offset="1" stop-color="#FCDD9A"/>
</linearGradient>
</defs>
</svg>
