<svg width="24" height="25" viewBox="0 0 24 25" fill="none" xmlns="http://www.w3.org/2000/svg">
<g clip-path="url(#clip0_2243_3611)">
<path fill-rule="evenodd" clip-rule="evenodd" d="M11.9999 0.5C18.5357 0.5 23.8336 5.79794 23.8336 12.3337C23.8336 18.8694 18.5357 24.1674 11.9999 24.1674C5.4642 24.1674 0.16626 18.8694 0.16626 12.3337C0.16626 5.79794 5.4642 0.5 11.9999 0.5ZM11.9999 2.86674C9.48915 2.86674 7.0812 3.86414 5.3058 5.63954C3.5304 7.41494 2.533 9.82289 2.533 12.3337C2.533 14.8445 3.5304 17.2524 5.3058 19.0278C7.0812 20.8032 9.48915 21.8006 11.9999 21.8006C14.5107 21.8006 16.9187 20.8032 18.6941 19.0278C20.4695 17.2524 21.4669 14.8445 21.4669 12.3337C21.4669 9.82289 20.4695 7.41494 18.6941 5.63954C16.9187 3.86414 14.5107 2.86674 11.9999 2.86674ZM11.9999 5.23347C12.3138 5.23347 12.6148 5.35815 12.8367 5.58007C13.0586 5.802 13.1833 6.10299 13.1833 6.41684V7.60021H14.9584C15.5078 7.60021 16.0463 7.7532 16.5137 8.04205C16.9811 8.33089 17.3588 8.74417 17.6045 9.23559C17.8502 9.727 17.9542 10.2771 17.9048 10.8243C17.8555 11.3715 17.6548 11.8942 17.3251 12.3337C17.6548 12.7732 17.8555 13.2959 17.9048 13.8431C17.9542 14.3902 17.8502 14.9404 17.6045 15.4318C17.3588 15.9232 16.9811 16.3365 16.5137 16.6253C16.0463 16.9142 15.5078 17.0672 14.9584 17.0672H13.1833V18.2505C13.1833 18.5644 13.0586 18.8654 12.8367 19.0873C12.6148 19.3092 12.3138 19.4339 11.9999 19.4339C11.6861 19.4339 11.3851 19.3092 11.1632 19.0873C10.9413 18.8654 10.8166 18.5644 10.8166 18.2505V17.0672H8.56818C8.22294 17.0672 7.89185 16.93 7.64773 16.6859C7.40361 16.4418 7.26647 16.1107 7.26647 15.7655V8.90192C7.26647 8.55668 7.40361 8.22559 7.64773 7.98147C7.89185 7.73735 8.22294 7.60021 8.56818 7.60021H10.8166V6.41684C10.8166 6.10299 10.9413 5.802 11.1632 5.58007C11.3851 5.35815 11.6861 5.23347 11.9999 5.23347ZM14.9584 13.5171H9.63321V14.7004H14.9584C15.1153 14.7004 15.2658 14.6381 15.3767 14.5271C15.4877 14.4162 15.55 14.2657 15.55 14.1087C15.55 13.9518 15.4877 13.8013 15.3767 13.6904C15.2658 13.5794 15.1153 13.5171 14.9584 13.5171ZM14.9584 9.96695H9.63321V11.1503H14.9584C15.1153 11.1503 15.2658 11.088 15.3767 10.977C15.4877 10.8661 15.55 10.7156 15.55 10.5586C15.55 10.4017 15.4877 10.2512 15.3767 10.1402C15.2658 10.0293 15.1153 9.96695 14.9584 9.96695Z" fill="#34C401"/>
</g>
<defs>
<clipPath id="clip0_2243_3611">
<rect width="24" height="24" fill="white" transform="translate(0 0.5)"/>
</clipPath>
</defs>
</svg>
