<svg width="24" height="26" viewBox="0 0 24 26" fill="none" xmlns="http://www.w3.org/2000/svg">
<g filter="url(#filter0_dii_2225_470)">
<circle cx="12.0006" cy="11.9994" r="8.74667" fill="white"/>
<path d="M16.5307 16.6501C16.1257 16.4401 15.6907 16.2301 15.0457 16.2301C14.4757 16.2301 14.0107 16.4401 13.5757 16.6501C13.1107 16.8601 12.6307 17.0851 11.9857 17.0851C11.4157 17.0851 10.9957 16.8901 10.5457 16.6801C10.0807 16.4701 9.60074 16.2451 8.94074 16.2451C8.37074 16.2451 7.90574 16.4551 7.45574 16.6501C6.99074 16.8601 6.49574 17.0851 5.86574 17.0851C5.83574 17.0851 5.79074 17.0851 5.76074 17.0851C5.82074 17.1601 5.89574 17.2501 5.95574 17.3251C6.60074 17.3101 7.08074 17.0851 7.54574 16.8751C7.99574 16.6801 8.40074 16.4851 8.92574 16.4851C9.52574 16.4851 9.96074 16.6951 10.4257 16.9051C10.8757 17.1151 11.3557 17.3401 11.9707 17.3401C12.6607 17.3401 13.1707 17.1001 13.6657 16.8751C14.1007 16.6801 14.5207 16.4851 15.0457 16.4851C15.6307 16.4851 16.0207 16.6801 16.4257 16.8901C16.8607 17.1151 17.3257 17.3401 18.0757 17.3401C18.1507 17.2651 18.2107 17.1751 18.2857 17.0851C18.2257 17.0851 18.1507 17.1001 18.0907 17.1001C17.3857 17.0701 16.9507 16.8601 16.5307 16.6501Z" fill="#9C8A81"/>
<path d="M15.0464 16.6804C14.4764 16.6804 14.0114 16.8904 13.5764 17.1004C13.1114 17.3104 12.6314 17.5354 11.9864 17.5354C11.4164 17.5354 10.9964 17.3404 10.5464 17.1304C10.0814 16.9204 9.60137 16.6954 8.94137 16.6954C8.37137 16.6954 7.90637 16.9054 7.45637 17.1004C7.06637 17.2804 6.64637 17.4604 6.15137 17.5204C6.22637 17.5954 6.28637 17.6704 6.36137 17.7304C6.82637 17.6554 7.20137 17.4904 7.56137 17.3254C8.01137 17.1304 8.41637 16.9354 8.94137 16.9354C9.54137 16.9354 9.97637 17.1454 10.4414 17.3554C10.8914 17.5654 11.3714 17.7904 11.9864 17.7904C12.6764 17.7904 13.1864 17.5504 13.6814 17.3254C14.1164 17.1154 14.5364 16.9354 15.0614 16.9354C15.6464 16.9354 16.0364 17.1304 16.4414 17.3404C16.8014 17.5204 17.1614 17.7004 17.6864 17.7754C17.7614 17.7004 17.8364 17.6254 17.8964 17.5504C17.3114 17.5204 16.9214 17.3104 16.5464 17.1304C16.1114 16.8904 15.6914 16.6804 15.0464 16.6804Z" fill="#9C8A81"/>
<path d="M15.0464 17.1304C14.4764 17.1304 14.0114 17.3404 13.5764 17.5504C13.1114 17.7604 12.6314 17.9854 11.9864 17.9854C11.4164 17.9854 10.9964 17.7904 10.5464 17.5804C10.0814 17.3704 9.60137 17.1454 8.94137 17.1454C8.37137 17.1454 7.90637 17.3554 7.45637 17.5504C7.17137 17.6854 6.87137 17.8204 6.52637 17.8954C6.60137 17.9554 6.66137 18.0304 6.73637 18.0904C7.02137 18.0004 7.29137 17.8804 7.54637 17.7754C7.99637 17.5804 8.40137 17.3854 8.92637 17.3854C9.52637 17.3854 9.96137 17.5954 10.4264 17.8054C10.8764 18.0154 11.3564 18.2404 11.9714 18.2404C12.6614 18.2404 13.1714 18.0004 13.6664 17.7754C14.1014 17.5804 14.5214 17.3854 15.0464 17.3854C15.6314 17.3854 16.0214 17.5804 16.4264 17.7754C16.6814 17.9104 16.9364 18.0304 17.2664 18.1204C17.3414 18.0604 17.4164 17.9854 17.4914 17.9254C17.1164 17.8504 16.8314 17.7004 16.5464 17.5504C16.1114 17.3554 15.6914 17.1304 15.0464 17.1304Z" fill="#9C8A81"/>
<path d="M15.0455 17.5944C14.4755 17.5944 14.0105 17.8044 13.5755 18.0144C13.1105 18.2244 12.6305 18.4494 11.9855 18.4494C11.4155 18.4494 10.9955 18.2544 10.5455 18.0444C10.0805 17.8344 9.60053 17.6094 8.94053 17.6094C8.37053 17.6094 7.90553 17.8194 7.45553 18.0144C7.27553 18.0894 7.11053 18.1794 6.91553 18.2394C6.99053 18.2994 7.06553 18.3594 7.14053 18.4194C7.29053 18.3594 7.42553 18.2994 7.56053 18.2394C8.01053 18.0444 8.41553 17.8494 8.94053 17.8494C9.54053 17.8494 9.97553 18.0594 10.4405 18.2694C10.8905 18.4794 11.3705 18.7044 11.9855 18.7044C12.6755 18.7044 13.1855 18.4644 13.6805 18.2394C14.1155 18.0294 14.5355 17.8494 15.0605 17.8494C15.6455 17.8494 16.0355 18.0444 16.4405 18.2544C16.5755 18.3294 16.7255 18.4044 16.8755 18.4644C16.9505 18.4044 17.0255 18.3444 17.1005 18.2844C16.9055 18.2094 16.7255 18.1194 16.5455 18.0294C16.1105 17.8044 15.6905 17.5944 15.0455 17.5944Z" fill="#9C8A81"/>
<path d="M15.0462 18.0452C14.4762 18.0452 14.0112 18.2552 13.5762 18.4652C13.1112 18.6752 12.6312 18.9002 11.9862 18.9002C11.4162 18.9002 10.9962 18.7052 10.5462 18.4952C10.0812 18.2702 9.60115 18.0602 8.94115 18.0602C8.37115 18.0602 7.90615 18.2702 7.45615 18.4652C7.41115 18.4952 7.35115 18.5102 7.30615 18.5402C7.38115 18.6002 7.45615 18.6452 7.53115 18.7052C7.54615 18.7052 7.54615 18.7052 7.56115 18.6902C8.01115 18.4952 8.41615 18.3002 8.94115 18.3002C9.54115 18.3002 9.97615 18.5102 10.4412 18.7202C10.8912 18.9302 11.3712 19.1552 11.9862 19.1552C12.6762 19.1552 13.1862 18.9152 13.6812 18.6902C14.1162 18.4802 14.5362 18.3002 15.0612 18.3002C15.6462 18.3002 16.0362 18.4952 16.4412 18.7052C16.4562 18.7202 16.4712 18.7202 16.5012 18.7352C16.5762 18.6902 16.6512 18.6302 16.7262 18.5852C16.6662 18.5552 16.6062 18.5252 16.5612 18.4952C16.1112 18.2702 15.6912 18.0452 15.0462 18.0452Z" fill="#9C8A81"/>
<path d="M13.5462 18.9147C13.0812 19.1247 12.6012 19.3497 11.9562 19.3497C11.3862 19.3497 10.9662 19.1547 10.5162 18.9447C10.0512 18.7347 9.57115 18.5097 8.91115 18.5097C8.44615 18.5097 8.05615 18.6447 7.68115 18.8097C7.77115 18.8697 7.84615 18.9147 7.93615 18.9597C8.23615 18.8397 8.55115 18.7497 8.91115 18.7497C9.51115 18.7497 9.94615 18.9597 10.4112 19.1697C10.8612 19.3797 11.3412 19.6047 11.9562 19.6047C12.6462 19.6047 13.1562 19.3647 13.6512 19.1397C14.0862 18.9447 14.5062 18.7497 15.0312 18.7497C15.4512 18.7497 15.7662 18.8397 16.0512 18.9747C16.1412 18.9297 16.2162 18.8697 16.2912 18.8247C15.9462 18.6597 15.5562 18.5097 15.0312 18.5097C14.4762 18.5097 13.9962 18.7197 13.5462 18.9147Z" fill="#9C8A81"/>
<path d="M11.9999 2.39999C6.7049 2.39999 2.3999 6.70499 2.3999 12C2.3999 17.295 6.7049 21.6 11.9999 21.6C17.2949 21.6 21.5999 17.295 21.5999 12C21.5999 6.70499 17.2949 2.39999 11.9999 2.39999ZM11.9999 20.07C7.5449 20.07 3.9299 16.455 3.9299 12C3.9299 7.54499 7.5449 3.92999 11.9999 3.92999C16.4549 3.92999 20.0699 7.54499 20.0699 12C20.0699 16.455 16.4549 20.07 11.9999 20.07Z" fill="#ED1B2E"/>
<path d="M16.484 9.62969C16.424 9.92969 16.124 10.2447 15.959 10.3797C15.584 10.6797 13.094 12.1947 12.809 12.5397C12.524 12.8847 12.479 13.4097 12.479 13.7997V16.7247H12.869C12.869 16.4697 12.869 16.0347 12.869 15.9747C12.869 15.7197 13.019 15.3147 13.319 14.9997C13.829 14.4597 15.014 13.7997 15.809 13.2297C16.454 12.7497 16.499 12.1047 16.499 11.5497C16.499 11.0847 16.499 9.79469 16.499 9.55469L16.484 9.62969Z" fill="#00A950"/>
<path d="M12.4938 12.36C12.7638 12.015 15.3438 10.455 15.7038 10.155C16.0638 9.85499 16.4988 9.40499 16.4988 8.81999C16.4988 8.32499 16.4988 5.89499 16.4988 5.54999C16.4988 6.01499 16.2438 6.35999 15.9138 6.79499C15.5388 7.28999 13.8138 8.21999 12.9588 8.81999C12.1038 9.41999 11.8188 10.005 11.8188 10.74C11.8188 11.355 11.8188 15.405 11.8188 16.71H12.1938C12.1938 15.855 12.1938 13.89 12.1938 13.59C12.1788 13.2 12.2088 12.705 12.4938 12.36Z" fill="#00A950"/>
<path d="M10.5439 8.97008C9.76391 8.37008 8.17391 7.09508 7.97891 6.84008C7.78391 6.58508 7.37891 6.13508 7.37891 5.58008C7.37891 5.98508 7.37891 8.25008 7.37891 8.62508C7.37891 9.06008 7.58891 9.84008 8.33891 10.3951C9.08891 10.9501 10.1539 11.7451 10.4839 12.0751C10.7989 12.3901 11.0989 12.9751 11.0989 13.8001C11.0989 14.4001 11.0989 16.0051 11.0989 16.7401H11.4739C11.4739 15.4801 11.4739 11.6701 11.4739 10.9051C11.5039 9.94508 11.3239 9.57008 10.5439 8.97008Z" fill="#00A950"/>
</g>
<defs>
<filter id="filter0_dii_2225_470" x="-2" y="-2" width="28" height="30" filterUnits="userSpaceOnUse" color-interpolation-filters="sRGB">
<feFlood flood-opacity="0" result="BackgroundImageFix"/>
<feColorMatrix in="SourceAlpha" type="matrix" values="0 0 0 0 0 0 0 0 0 0 0 0 0 0 0 0 0 0 127 0" result="hardAlpha"/>
<feOffset dy="2"/>
<feGaussianBlur stdDeviation="1"/>
<feComposite in2="hardAlpha" operator="out"/>
<feColorMatrix type="matrix" values="0 0 0 0 0 0 0 0 0 0 0 0 0 0 0 0 0 0 0.25 0"/>
<feBlend mode="normal" in2="BackgroundImageFix" result="effect1_dropShadow_2225_470"/>
<feBlend mode="normal" in="SourceGraphic" in2="effect1_dropShadow_2225_470" result="shape"/>
<feColorMatrix in="SourceAlpha" type="matrix" values="0 0 0 0 0 0 0 0 0 0 0 0 0 0 0 0 0 0 127 0" result="hardAlpha"/>
<feOffset dx="-2" dy="2"/>
<feGaussianBlur stdDeviation="2"/>
<feComposite in2="hardAlpha" operator="arithmetic" k2="-1" k3="1"/>
<feColorMatrix type="matrix" values="0 0 0 0 1 0 0 0 0 1 0 0 0 0 1 0 0 0 0.3 0"/>
<feBlend mode="normal" in2="shape" result="effect2_innerShadow_2225_470"/>
<feColorMatrix in="SourceAlpha" type="matrix" values="0 0 0 0 0 0 0 0 0 0 0 0 0 0 0 0 0 0 127 0" result="hardAlpha"/>
<feOffset dy="-2"/>
<feGaussianBlur stdDeviation="1"/>
<feComposite in2="hardAlpha" operator="arithmetic" k2="-1" k3="1"/>
<feColorMatrix type="matrix" values="0 0 0 0 0 0 0 0 0 0 0 0 0 0 0 0 0 0 0.1 0"/>
<feBlend mode="normal" in2="effect2_innerShadow_2225_470" result="effect3_innerShadow_2225_470"/>
</filter>
</defs>
</svg>
