<svg width="25" height="24" viewBox="0 0 25 24" fill="none" xmlns="http://www.w3.org/2000/svg">
<path d="M4.50001 5.40001C4.50001 4.62201 5.12201 4.00001 5.90001 4.00001H13.1C13.878 4.00001 14.5 4.62201 14.5 5.40001V6.00001C14.5 6.13133 14.5259 6.26136 14.5761 6.38269C14.6264 6.50401 14.7 6.61425 14.7929 6.70711C14.8858 6.79997 14.996 6.87363 15.1173 6.92388C15.2386 6.97414 15.3687 7.00001 15.5 7.00001C15.6313 7.00001 15.7614 6.97414 15.8827 6.92388C16.004 6.87363 16.1143 6.79997 16.2071 6.70711C16.3 6.61425 16.3736 6.50401 16.4239 6.38269C16.4741 6.26136 16.5 6.13133 16.5 6.00001V5.40001C16.5 3.51801 14.982 2.00001 13.1 2.00001H5.90001C5.45329 1.99921 5.01081 2.08662 4.59795 2.25721C4.18508 2.42779 3.80996 2.6782 3.49408 2.99408C3.1782 3.30996 2.92779 3.68508 2.75721 4.09795C2.58662 4.51081 2.49921 4.95329 2.50001 5.40001V12.6C2.50001 14.482 4.01801 16 5.90001 16H6.50001C6.76522 16 7.01958 15.8946 7.20711 15.7071C7.39465 15.5196 7.50001 15.2652 7.50001 15C7.50001 14.7348 7.39465 14.4804 7.20711 14.2929C7.01958 14.1054 6.76522 14 6.50001 14H5.90001C5.12201 14 4.50001 13.378 4.50001 12.6V5.40001Z" fill="url(#paint0_linear_2255_2298)"/>
<path d="M9.5 11.4C9.5 10.7635 9.75286 10.153 10.2029 9.70294C10.653 9.25286 11.2635 9 11.9 9H19.1C19.7365 9 20.347 9.25286 20.7971 9.70294C21.2471 10.153 21.5 10.7635 21.5 11.4V18.6C21.5 19.2365 21.2471 19.847 20.7971 20.2971C20.347 20.7471 19.7365 21 19.1 21H11.9C11.2635 21 10.653 20.7471 10.2029 20.2971C9.75286 19.847 9.5 19.2365 9.5 18.6V11.4Z" fill="url(#paint1_linear_2255_2298)"/>
<defs>
<linearGradient id="paint0_linear_2255_2298" x1="16.5" y1="9" x2="2.5" y2="9" gradientUnits="userSpaceOnUse">
<stop stop-color="#181411"/>
<stop offset="1" stop-color="#2F281D"/>
</linearGradient>
<linearGradient id="paint1_linear_2255_2298" x1="21.5" y1="15" x2="9.5" y2="15" gradientUnits="userSpaceOnUse">
<stop stop-color="#181411"/>
<stop offset="1" stop-color="#2F281D"/>
</linearGradient>
</defs>
</svg>
