<svg width="40" height="40" viewBox="0 0 40 40" fill="none" xmlns="http://www.w3.org/2000/svg">
<path d="M33.0915 24.6658H30.5998C29.7814 25.5927 28.8425 26.3991 27.8194 27.0731C25.5325 28.6018 22.8002 29.4805 19.8512 29.4805C16.9022 29.4805 14.1699 28.6018 11.883 27.0731C10.8599 26.3991 9.92104 25.5927 9.10255 24.6658H6.61097C4.62494 24.6658 3 26.2908 3 28.2768V33.0915C3 35.0774 4.62494 36.7024 6.61097 36.7024H33.0915C35.0774 36.7024 36.7024 35.0774 36.7024 33.0915V28.2768C36.7024 26.2908 35.0774 24.6658 33.0915 24.6658ZM29.4805 33.0915H10.2219C9.55993 33.0915 9.01829 32.5498 9.01829 31.8878C9.01829 31.2258 9.55993 30.6841 10.2219 30.6841H29.4805C30.1425 30.6841 30.6841 31.2258 30.6841 31.8878C30.6841 32.5498 30.1425 33.0915 29.4805 33.0915ZM19.8512 3C13.2191 3 7.81463 8.40443 7.81463 15.0366C7.81463 18.9725 9.71641 22.4752 12.6413 24.6658C14.6514 26.1825 17.143 27.0731 19.8512 27.0731C22.5595 27.0731 25.051 26.1825 27.0611 24.6658C29.986 22.4752 31.8878 18.9725 31.8878 15.0366C31.8878 8.40443 26.4833 3 19.8512 3ZM19.2494 13.8329H20.3808C22.0419 13.8329 23.39 15.181 23.39 16.8421C23.39 18.3105 22.3909 19.5142 21.0549 19.8271V21.0549C21.0549 21.7169 20.5132 22.2585 19.8512 22.2585C19.1892 22.2585 18.6475 21.7169 18.6475 21.0549V19.8993H17.4439C16.7818 19.8993 16.2402 19.3698 16.2402 18.6957C16.2402 18.0337 16.7818 17.492 17.4439 17.492H20.3808C20.7179 17.492 20.9827 17.2272 20.9827 16.8902C20.9827 16.5051 20.7179 16.2402 20.3808 16.2402H19.2494C17.5883 16.2402 16.2402 14.8922 16.2402 13.2311C16.2402 11.7747 17.2754 10.559 18.6475 10.2821V9.01829C18.6475 8.35627 19.1892 7.81463 19.8512 7.81463C20.5132 7.81463 21.0549 8.35627 21.0549 9.01829V10.2219H22.1863C22.8483 10.2219 23.39 10.7636 23.39 11.4256C23.39 12.0876 22.8483 12.6293 22.1863 12.6293H19.2494C18.9123 12.6293 18.6475 12.8941 18.6475 13.2311C18.6475 13.5682 18.9123 13.8329 19.2494 13.8329Z" fill="url(#paint0_linear_2153_1191)"/>
<defs>
<linearGradient id="paint0_linear_2153_1191" x1="36.7024" y1="19.8512" x2="3" y2="19.8512" gradientUnits="userSpaceOnUse">
<stop stop-color="#181411"/>
<stop offset="1" stop-color="#2F281D"/>
</linearGradient>
</defs>
</svg>
