<svg width="39" height="39" viewBox="0 0 39 39" fill="none" xmlns="http://www.w3.org/2000/svg">
<g clip-path="url(#clip0_2153_1226)">
<g clip-path="url(#clip1_2153_1226)">
<g clip-path="url(#clip2_2153_1226)">
<path fill-rule="evenodd" clip-rule="evenodd" d="M0.25 18.9583C0.25 8.90214 8.40214 0.75 18.4583 0.75C28.5144 0.75 36.6667 8.90214 36.6667 18.9583C36.6667 29.0144 28.5144 37.1667 18.4583 37.1667C8.40214 37.1667 0.25 29.0144 0.25 18.9583ZM18.4582 8.03333C14.4357 8.03333 11.1748 11.2942 11.1748 15.3167C11.1748 19.3391 14.4357 22.6 18.4582 22.6C22.4805 22.6 25.7415 19.3391 25.7415 15.3167C25.7415 11.2942 22.4805 8.03333 18.4582 8.03333ZM27.7655 26.2369C29.1454 27.1255 29.0779 29.0624 27.8214 30.1178C25.2896 32.2442 22.0237 33.525 18.4585 33.525C14.917 33.525 11.6705 32.2612 9.14578 30.1598C7.87804 29.1045 7.81086 27.1579 9.19669 26.2635C9.6281 25.9852 10.0979 25.7412 10.6078 25.5311C12.6593 24.6852 15.2795 24.4208 18.4583 24.4208C21.6532 24.4208 24.2883 24.6683 26.3451 25.5049C26.8589 25.7139 27.332 25.9578 27.7655 26.2369Z" fill="url(#paint0_linear_2153_1226)"/>
<path d="M36.6667 18.9583C36.6667 24.5 24 24.5 19.25 19.75C10.5417 11.8333 0.25 18.9583 0.25 18.9583C0.25 8.90215 8.40215 0.75 18.4583 0.75C28.5146 0.75 36.6667 8.90215 36.6667 18.9583Z" fill="url(#paint1_linear_2153_1226)"/>
</g>
</g>
</g>
<defs>
<linearGradient id="paint0_linear_2153_1226" x1="18.4583" y1="0.75" x2="18.4404" y2="37.1667" gradientUnits="userSpaceOnUse">
<stop stop-color="#8B6832"/>
<stop offset="1" stop-color="#FCDD9A"/>
</linearGradient>
<linearGradient id="paint1_linear_2153_1226" x1="20.0417" y1="22.125" x2="20.0417" y2="12.625" gradientUnits="userSpaceOnUse">
<stop stop-color="white" stop-opacity="0.3"/>
<stop offset="1" stop-color="white" stop-opacity="0"/>
</linearGradient>
<clipPath id="clip0_2153_1226">
<rect width="38" height="38" fill="white" transform="translate(0.25 0.75)"/>
</clipPath>
<clipPath id="clip1_2153_1226">
<rect width="36.4167" height="36.4167" fill="white" transform="translate(0.25 0.75)"/>
</clipPath>
<clipPath id="clip2_2153_1226">
<rect width="36.4167" height="36.4167" fill="white" transform="translate(0.25 0.75)"/>
</clipPath>
</defs>
</svg>
