<svg width="39" height="39" viewBox="0 0 39 39" fill="none" xmlns="http://www.w3.org/2000/svg">
<path d="M14.2764 28.6268C14.2332 28.392 14.2114 28.1466 14.1898 27.9011C14.1681 27.6343 14.1574 27.3568 14.1574 27.0793C14.1574 26.2255 14.2548 25.4038 14.4495 24.614C14.6011 23.995 14.7959 23.3973 15.0555 22.8317C16.7221 19.0537 20.5421 16.4069 24.979 16.4069C25.7257 16.4069 26.4508 16.4816 27.1434 16.6203V6.80171C27.1434 5.04075 25.6824 3.59998 23.8968 3.59998H8.7465C6.96093 3.59998 5.5 5.04075 5.5 6.80171V30.2811C5.5 32.042 6.96093 33.4828 8.7465 33.4828H16.3325C15.8239 32.8318 15.4019 32.1167 15.0664 31.3483C14.6768 30.4945 14.4171 29.5873 14.2764 28.6268ZM19.5682 10.0034H21.7326C22.3277 10.0034 22.8148 10.4837 22.8148 11.0707C22.8148 11.6577 22.3277 12.1379 21.7326 12.1379H19.5682C18.973 12.1379 18.486 11.6577 18.486 11.0707C18.486 10.4837 18.973 10.0034 19.5682 10.0034ZM19.5682 14.2724H21.7326C22.3277 14.2724 22.8148 14.7527 22.8148 15.3397C22.8148 15.9266 22.3277 16.4069 21.7326 16.4069H19.5682C18.973 16.4069 18.486 15.9266 18.486 15.3397C18.486 14.7527 18.973 14.2724 19.5682 14.2724ZM11.993 29.2138H10.9108C10.3157 29.2138 9.82868 28.7335 9.82868 28.1466C9.82868 27.5596 10.3157 27.0793 10.9108 27.0793H11.993C12.5882 27.0793 13.0752 27.5596 13.0752 28.1466C13.0752 28.7335 12.5882 29.2138 11.993 29.2138ZM11.993 24.9448H10.9108C10.3157 24.9448 9.82868 24.4646 9.82868 23.8776C9.82868 23.2906 10.3157 22.8104 10.9108 22.8104H11.993C12.5882 22.8104 13.0752 23.2906 13.0752 23.8776C13.0752 24.4646 12.5882 24.9448 11.993 24.9448ZM13.1077 20.6759C12.5125 20.6759 12.0255 20.1956 12.0255 19.6086V18.5841H10.9433C10.3481 18.5841 9.86114 18.1145 9.86114 17.5168C9.86114 16.9298 10.3481 16.4496 10.9433 16.4496H13.5838C13.8868 16.4496 14.1249 16.2148 14.1249 15.916C14.1249 15.5744 13.8868 15.3397 13.5838 15.3397H12.5666C11.0732 15.3397 9.86114 14.1443 9.86114 12.6715C9.86114 11.3802 10.7918 10.3023 12.0255 10.0568V8.93619C12.0255 8.34921 12.5125 7.86895 13.1077 7.86895C13.7028 7.86895 14.1898 8.34921 14.1898 8.93619V10.0034H15.2071C15.8023 10.0034 16.2892 10.4837 16.2892 11.0707C16.2892 11.6577 15.8023 12.1379 15.2071 12.1379H12.5666C12.2636 12.1379 12.0255 12.3727 12.0255 12.6715C12.0255 12.9704 12.2636 13.2052 12.5666 13.2052H13.5838C15.0772 13.2052 16.2892 14.4005 16.2892 15.8733C16.2892 17.1753 15.391 18.2426 14.1898 18.52V19.6086C14.1898 20.1956 13.7028 20.6759 13.1077 20.6759ZM27.1434 18.8082C26.4508 18.6374 25.7257 18.5414 24.979 18.5414C24.1242 18.5414 23.3125 18.6588 22.5334 18.8936C21.3213 19.2458 20.2283 19.8541 19.3085 20.6438C18.5834 21.2522 17.9666 21.9886 17.4905 22.8104C17.1008 23.472 16.7978 24.1871 16.5922 24.9448C16.4191 25.6279 16.3217 26.3429 16.3217 27.0793C16.3217 27.8157 16.4191 28.5308 16.5922 29.2138C16.7978 29.9716 17.1008 30.6866 17.4905 31.3483C17.9558 32.1487 18.5618 32.8745 19.2652 33.4828C20.7911 34.8062 22.793 35.6173 24.979 35.6173C29.7514 35.6173 33.6364 31.7859 33.6364 27.0793C33.6364 23.1092 30.8769 19.7687 27.1434 18.8082ZM28.2256 29.2138H24.979C24.3839 29.2138 23.8968 28.7335 23.8968 28.1466V24.9448C23.8968 24.3579 24.3839 23.8776 24.979 23.8776C25.5743 23.8776 26.0612 24.3579 26.0612 24.9448V27.0793H28.2256C28.8207 27.0793 29.3078 27.5596 29.3078 28.1466C29.3078 28.7335 28.8207 29.2138 28.2256 29.2138Z" fill="url(#paint0_linear_2153_1205)"/>
<defs>
<linearGradient id="paint0_linear_2153_1205" x1="19.5682" y1="3.59998" x2="19.5503" y2="35.6173" gradientUnits="userSpaceOnUse">
<stop stop-color="#8B6832"/>
<stop offset="1" stop-color="#FCDD9A"/>
</linearGradient>
</defs>
</svg>
