<svg width="80" height="80" viewBox="0 0 80 80" fill="none" xmlns="http://www.w3.org/2000/svg">
<path d="M39.9999 3.33331C19.7233 3.33331 3.33325 19.7233 3.33325 40C3.33325 60.2766 19.7233 76.6666 39.9999 76.6666C60.2766 76.6666 76.6666 60.2766 76.6666 40C76.6666 19.7233 60.2766 3.33331 39.9999 3.33331ZM39.9999 69.3333C23.8299 69.3333 10.6666 56.17 10.6666 40C10.6666 23.83 23.8299 10.6666 39.9999 10.6666C56.1699 10.6666 69.3333 23.83 69.3333 40C69.3333 56.17 56.1699 69.3333 39.9999 69.3333ZM53.1632 21.6666L39.9999 34.83L26.8366 21.6666L21.6666 26.8366L34.8299 40L21.6666 53.1633L26.8366 58.3333L39.9999 45.17L53.1632 58.3333L58.3332 53.1633L45.1699 40L58.3332 26.8366L53.1632 21.6666Z" fill="#FF4D4F"/>
</svg>
