<svg width="24" height="24" viewBox="0 0 24 24" fill="none" xmlns="http://www.w3.org/2000/svg">
<path fill-rule="evenodd" clip-rule="evenodd" d="M20.6708 10.6838H19.2191V20.1191C19.2191 20.504 19.0662 20.8733 18.794 21.1455C18.5217 21.4177 18.1525 21.5707 17.7675 21.5707H6.15481C5.76982 21.5707 5.4006 21.4177 5.12838 21.1455C4.85615 20.8733 4.70322 20.504 4.70322 20.1191V10.6838H3.25164C2.86665 10.6838 2.49744 10.5308 2.22521 10.2586C1.95298 9.98634 1.80005 9.61715 1.80005 9.23214V4.15159C1.80005 3.76661 1.95298 3.39739 2.22521 3.12516C2.49744 2.85294 2.86665 2.7 3.25164 2.7H20.6708C21.0557 2.7 21.425 2.85294 21.6972 3.12516C21.9694 3.39739 22.1223 3.76661 22.1223 4.15159V9.23214C22.1223 9.61715 21.9694 9.98634 21.6972 10.2586C21.425 10.5308 21.0557 10.6838 20.6708 10.6838ZM20.6708 9.23214H19.2191V7.05476H19.582C19.7746 7.05476 19.9591 6.9783 20.0953 6.84218C20.2314 6.70607 20.3079 6.52146 20.3079 6.32897C20.3079 6.13647 20.2314 5.95187 20.0953 5.81575C19.9591 5.67964 19.7746 5.60317 19.582 5.60317H18.4933H5.42901H4.34033C4.14784 5.60317 3.96323 5.67964 3.82712 5.81575C3.691 5.95187 3.61453 6.13647 3.61453 6.32897C3.61453 6.52146 3.691 6.70607 3.82712 6.84218C3.96323 6.9783 4.14784 7.05476 4.34033 7.05476H4.70322V9.23214H3.25164V4.15159H20.6708V9.23214ZM16.0438 14.6756H15.4087V15.7643C15.4087 15.9568 15.3322 16.1414 15.1961 16.2775C15.06 16.4137 14.8754 16.4901 14.6829 16.4901C14.4904 16.4901 14.3058 16.4137 14.1697 16.2775C14.0336 16.1414 13.9571 15.9568 13.9571 15.7643V13.4962C13.9571 13.3278 13.8902 13.1662 13.7711 13.0471C13.652 12.928 13.4905 12.8611 13.322 12.8611C13.1536 12.8611 12.9921 12.928 12.873 13.0471C12.7539 13.1662 12.6869 13.3278 12.6869 13.4962V14.4034C12.6879 14.9325 12.4872 15.4421 12.1259 15.8285C11.7646 16.215 11.2697 16.4494 10.7417 16.4841C10.2138 16.5187 9.69249 16.351 9.28376 16.0151C8.87504 15.6792 8.60949 15.2002 8.5412 14.6756H7.87857C7.68606 14.6756 7.5015 14.5991 7.36534 14.463C7.22924 14.3269 7.15275 14.1423 7.15275 13.9498C7.15275 13.7574 7.22924 13.5727 7.36534 13.4366C7.5015 13.3005 7.68606 13.224 7.87857 13.224H8.51367V12.1353C8.51367 11.9428 8.59009 11.7583 8.72625 11.6221C8.86235 11.486 9.04698 11.4095 9.23942 11.4095C9.43193 11.4095 9.61655 11.486 9.75265 11.6221C9.88875 11.7583 9.96523 11.9428 9.96523 12.1353V14.4034C9.96523 14.5719 10.0322 14.7334 10.1512 14.8525C10.2703 14.9716 10.4318 15.0385 10.6003 15.0385C10.7688 15.0385 10.9303 14.9716 11.0494 14.8525C11.1685 14.7334 11.2354 14.5719 11.2354 14.4034V13.4962C11.2345 12.9671 11.4351 12.4576 11.7965 12.0712C12.1578 11.6847 12.6526 11.4503 13.1806 11.4156C13.7085 11.3809 14.2298 11.5486 14.6386 11.8846C15.0473 12.2204 15.3128 12.6994 15.3811 13.224H16.0438C16.2363 13.224 16.4209 13.3005 16.557 13.4366C16.6931 13.5727 16.7696 13.7574 16.7696 13.9498C16.7696 14.1423 16.6931 14.3269 16.557 14.463C16.4209 14.5991 16.2363 14.6756 16.0438 14.6756Z" fill="url(#paint0_linear_2153_1258)"/>
<defs>
<linearGradient id="paint0_linear_2153_1258" x1="11.9612" y1="2.7" x2="11.9526" y2="21.5707" gradientUnits="userSpaceOnUse">
<stop stop-color="#8B6832"/>
<stop offset="1" stop-color="#FCDD9A"/>
</linearGradient>
</defs>
</svg>
