<svg width="16" height="16" viewBox="0 0 16 16" fill="none" xmlns="http://www.w3.org/2000/svg">
<path d="M8.13891 3.11916C9.00385 3.11788 9.85418 3.34196 10.6062 3.76932L9.97665 4.39884C9.89865 4.47688 9.84551 4.57632 9.82398 4.68456C9.80245 4.7928 9.81351 4.90499 9.85571 5.00695C9.89798 5.10892 9.96945 5.19606 10.0612 5.25739C10.153 5.31872 10.2608 5.35146 10.3712 5.35148H12.6035C12.7515 5.35148 12.8935 5.29268 12.9982 5.18802C13.1028 5.08336 13.1616 4.94141 13.1616 4.7934V2.56108C13.1616 2.45072 13.1288 2.34284 13.0675 2.25108C13.0062 2.15933 12.919 2.08782 12.8171 2.04559C12.7151 2.00336 12.6029 1.99231 12.4947 2.01383C12.3864 2.03536 12.287 2.08849 12.209 2.16652L11.422 2.95174C10.4934 2.36395 9.42398 2.03624 8.32545 2.00284C7.22694 1.96944 6.13958 2.23156 5.17693 2.76183C4.21428 3.29211 3.41164 4.07109 2.85281 5.01745C2.29399 5.96382 1.99946 7.04284 2 8.14186C2 8.28993 2.05879 8.43186 2.16345 8.53653C2.26811 8.6412 2.41007 8.7 2.55808 8.7C2.70609 8.7 2.84804 8.6412 2.9527 8.53653C3.05736 8.43186 3.11616 8.28993 3.11616 8.14186C3.11764 6.81023 3.64729 5.53354 4.58891 4.59191C5.53054 3.65029 6.80723 3.12064 8.13891 3.11916Z" fill="white"/>
<path d="M13.7198 7.5838C13.5718 7.5838 13.4298 7.6426 13.3251 7.74726C13.2205 7.85191 13.1617 7.99384 13.1617 8.14191C13.1602 9.47351 12.6306 10.7502 11.6889 11.6918C10.7473 12.6335 9.47062 13.1631 8.13896 13.1646C7.27407 13.1662 6.42378 12.9418 5.67222 12.5139L6.30118 11.8849C6.3792 11.8069 6.43234 11.7074 6.45386 11.5992C6.47538 11.491 6.46433 11.3788 6.4221 11.2768C6.37987 11.1748 6.30836 11.0877 6.2166 11.0264C6.12485 10.965 6.01698 10.9323 5.90662 10.9323H3.67429C3.52628 10.9323 3.38433 10.9911 3.27967 11.0958C3.17501 11.2004 3.11621 11.3424 3.11621 11.4904V13.7227C3.11618 13.833 3.14888 13.941 3.21017 14.0328C3.27146 14.1245 3.3586 14.1961 3.46055 14.2384C3.52826 14.2666 3.60093 14.281 3.67429 14.2808C3.82229 14.2807 3.96422 14.2219 4.06886 14.1172L4.85631 13.332C5.8374 13.9554 6.97656 14.2846 8.13896 14.2808C9.76649 14.2788 11.3268 13.6314 12.4777 12.4806C13.6285 11.3298 14.2759 9.76944 14.2778 8.14191C14.2778 7.99384 14.219 7.85191 14.1144 7.74726C14.0097 7.6426 13.8678 7.5838 13.7198 7.5838Z" fill="white"/>
</svg>
