<svg width="39" height="39" viewBox="0 0 39 39" fill="none" xmlns="http://www.w3.org/2000/svg">
<path d="M29.4873 16.5725C29.6109 16.5682 29.7339 16.5893 29.8494 16.6345C29.9647 16.6797 30.07 16.7482 30.1589 16.8357C30.2478 16.9234 30.3185 17.0283 30.3669 17.1443C30.4151 17.2604 30.44 17.3852 30.44 17.5112C30.44 17.6374 30.4151 17.7622 30.3669 17.8781C30.3185 17.9942 30.2478 18.0992 30.1589 18.1868C30.07 18.2744 29.9647 18.3428 29.8494 18.3881C29.7339 18.4333 29.6109 18.4543 29.4873 18.45H26.9291V20.1233H29.4873C29.6116 20.1171 29.7359 20.1368 29.8524 20.1809C29.9691 20.2252 30.0757 20.2932 30.1657 20.3807C30.2559 20.4682 30.3276 20.5734 30.3766 20.6901C30.4256 20.8067 30.4509 20.9323 30.4509 21.0592C30.4509 21.1862 30.4256 21.3117 30.3766 21.4284C30.3276 21.545 30.2559 21.6503 30.1657 21.7378C30.0757 21.8253 29.9691 21.8932 29.8524 21.9375C29.7359 21.9817 29.6116 22.0014 29.4873 21.9952H26.0125C25.7695 21.9943 25.5369 21.8953 25.3653 21.72C25.1938 21.5445 25.0972 21.307 25.097 21.0592V13.9644C25.097 13.448 25.5071 13.024 26.0125 13.024H29.4939C29.73 13.0365 29.9525 13.1412 30.1151 13.3163C30.2777 13.4914 30.368 13.7236 30.3673 13.9648C30.3666 14.206 30.2749 14.4378 30.1114 14.6119C29.9477 14.786 29.7247 14.8893 29.4884 14.9004H26.9301V16.5736L29.4873 16.5725ZM23.8721 21.0581C23.87 21.3065 23.7718 21.5441 23.599 21.7192C23.4262 21.8943 23.1925 21.9927 22.9489 21.9929C22.8047 21.9944 22.6621 21.9615 22.5324 21.897C22.4028 21.8326 22.2896 21.7383 22.2019 21.6215L18.6417 16.6829V21.057C18.6417 21.3052 18.5451 21.5432 18.3729 21.7188C18.2009 21.8943 17.9674 21.9929 17.724 21.9929C17.4806 21.9929 17.2473 21.8943 17.0751 21.7188C16.9031 21.5432 16.8064 21.3052 16.8064 21.057V13.9622C16.8064 13.5617 17.0634 13.2025 17.4331 13.0742C17.5243 13.0413 17.6207 13.0251 17.7175 13.0263C18.0019 13.0263 18.2643 13.1835 18.4405 13.4044L22.0291 18.354V13.9622C22.0291 13.4457 22.4392 13.0218 22.9467 13.0218C23.4541 13.0218 23.8698 13.4457 23.8698 13.9622L23.8721 21.0581ZM15.4982 21.0581C15.4971 21.3069 15.3993 21.5452 15.2263 21.7205C15.0533 21.896 14.8191 21.9944 14.5752 21.994C14.333 21.992 14.1014 21.8925 13.9309 21.7173C13.7602 21.542 13.6643 21.3051 13.6641 21.0581V13.9634C13.6641 13.4468 14.0743 13.0229 14.5817 13.0229C15.0882 13.0229 15.4994 13.4468 15.4994 13.9634L15.4982 21.0581ZM11.9031 21.994H8.42176C8.17802 21.9935 7.94435 21.8949 7.77152 21.7196C7.5987 21.5444 7.5006 21.3067 7.49858 21.0581V13.9634C7.49858 13.4468 7.91426 13.0229 8.42176 13.0229C8.92916 13.0229 9.33935 13.4468 9.33935 13.9634V20.1222H11.9031C12.1465 20.1222 12.3799 20.2208 12.552 20.3963C12.7241 20.5719 12.8208 20.8099 12.8208 21.0581C12.8208 21.3063 12.7241 21.5444 12.552 21.72C12.3799 21.8955 12.1465 21.994 11.9031 21.994ZM36.25 17.2397C36.25 9.25133 28.3935 2.75 18.75 2.75C9.10635 2.75 1.25 9.25133 1.25 17.2397C1.25 24.398 7.47666 30.394 15.8844 31.5329C16.4542 31.6546 17.2286 31.9168 17.4287 32.4109C17.6048 32.8571 17.5425 33.5488 17.4856 34.0206L17.246 35.5366C17.1771 35.984 16.8928 37.2981 18.7729 36.496C20.6585 35.6939 28.8617 30.4308 32.5356 26.1182C35.048 23.3127 36.25 20.43 36.25 17.2397Z" fill="url(#paint0_linear_2153_1212)"/>
<defs>
<linearGradient id="paint0_linear_2153_1212" x1="18.75" y1="2.75" x2="18.7338" y2="36.75" gradientUnits="userSpaceOnUse">
<stop stop-color="#8B6832"/>
<stop offset="1" stop-color="#FCDD9A"/>
</linearGradient>
</defs>
</svg>
