<svg width="40" height="40" viewBox="0 0 40 40" fill="none" xmlns="http://www.w3.org/2000/svg">
<path opacity="0.5" d="M17.75 37.5C27.2769 37.5 35 29.7769 35 20.25C35 10.7231 27.2769 3 17.75 3C8.22309 3 0.5 10.7231 0.5 20.25C0.5 29.7769 8.22309 37.5 17.75 37.5Z" fill="url(#paint0_linear_2063_43206)"/>
<path d="M20.7781 7.55215C20.9629 8.07062 20.6925 8.64067 20.175 8.82447L13.9456 11.0462C13.4261 11.234 12.8561 10.9606 12.6732 10.4431C12.4884 9.92462 12.7588 9.35462 13.2763 9.17077L19.5058 6.94905C20.0192 6.76438 20.5943 7.03179 20.7781 7.55215ZM29.1767 17.8243L26.955 24.0557C26.7702 24.5742 27.0406 25.1442 27.5581 25.329C28.0756 25.51 28.6476 25.2424 28.8304 24.7249L31.0522 18.4935C31.237 17.975 30.9666 17.405 30.4491 17.2202C29.9209 17.0348 29.3568 17.3148 29.1767 17.8243ZM33.4846 3.14705L5.72008 20.1939L5.24341 21.0013L5.65003 21.8465L9.91253 24.9739C10.1752 25.1656 10.5098 25.2181 10.8172 25.115L13.926 24.0761L12.8852 27.1811C12.7841 27.4875 12.8366 27.825 13.0272 28.0867L16.1536 32.3502L16.998 32.7558L17.8074 32.2812L34.8542 4.51667C35.0936 4.12368 35.0332 3.61787 34.7083 3.29201C34.3774 2.96111 33.8663 2.90965 33.4846 3.14705Z" fill="url(#paint1_linear_2063_43206)"/>
<path d="M35 21.4995C35.5523 21.4995 36 21.0518 36 20.4995C36 19.9472 35.5523 19.4995 35 19.4995C34.4477 19.4995 34 19.9472 34 20.4995C34 21.0518 34.4477 21.4995 35 21.4995Z" fill="url(#paint2_linear_2063_43206)"/>
<path d="M24 7.49951C24.5523 7.49951 25 7.0518 25 6.49951C25 5.94723 24.5523 5.49951 24 5.49951C23.4477 5.49951 23 5.94723 23 6.49951C23 7.0518 23.4477 7.49951 24 7.49951Z" fill="url(#paint3_linear_2063_43206)"/>
<path fill-rule="evenodd" clip-rule="evenodd" d="M35.6314 11.1101C35.9075 11.1101 36.1314 10.8862 36.1314 10.6101V9.83576C36.1314 9.65061 36.2825 9.49956 36.4676 9.49951H37.0743C37.2594 9.49956 37.4105 9.65281 37.4105 9.83576V10.6101C37.4105 10.8862 37.6344 11.1101 37.9105 11.1101H38.664C38.8492 11.1101 39.0003 11.2634 39.0003 11.4463V12.053C39.0002 12.2359 38.8469 12.3892 38.664 12.3892H37.9105C37.6344 12.3892 37.4105 12.6131 37.4105 12.8892V13.6635C37.4105 13.8465 37.2572 13.9997 37.0743 13.9998H36.4676C36.2847 13.9998 36.1314 13.8487 36.1314 13.6635V12.8892C36.1314 12.6131 35.9075 12.3892 35.6314 12.3892H34.8363C34.6533 12.3892 34.5 12.2382 34.5 12.053V11.4463C34.5 11.2612 34.6511 11.1101 34.8363 11.1101H35.6314Z" fill="url(#paint4_linear_2063_43206)"/>
<path d="M14 15.9995C14.5523 15.9995 15 15.5518 15 14.9995C15 14.4472 14.5523 13.9995 14 13.9995C13.4477 13.9995 13 14.4472 13 14.9995C13 15.5518 13.4477 15.9995 14 15.9995Z" fill="url(#paint5_linear_2063_43206)"/>
<path d="M21 35C21.5523 35 22 34.5523 22 34C22 33.4477 21.5523 33 21 33C20.4477 33 20 33.4477 20 34C20 34.5523 20.4477 35 21 35Z" fill="url(#paint6_linear_2063_43206)"/>
<path d="M11.75 27L17.75 32.25L35.25 4L34.25 3.25L15.75 21.5L11.75 27Z" fill="url(#paint7_linear_2063_43206)"/>
<path d="M6.82917 20.2394L10.6754 23.0624L15.1889 21.5527C15.5449 21.4292 15.9399 21.5255 16.2084 21.7929C16.475 22.0604 16.5683 22.4554 16.4497 22.8133L14.94 27.324L17.7609 31.1712C17.9827 31.4756 18.0158 31.8793 17.8446 32.2139C17.6734 32.5476 17.331 32.7567 16.9575 32.7567C16.9555 32.7567 12.2085 32.7208 12.2085 32.7208L9.44012 36.5835C9.22027 36.8899 8.82927 37.0446 8.47517 36.9872C8.10162 36.9278 7.79427 36.6633 7.68142 36.3043L6.24372 31.7577L1.69712 30.3191C1.3372 30.2052 1.07264 29.8988 1.01235 29.5263C0.953974 29.1538 1.10963 28.7792 1.41702 28.5594L5.28078 25.7929L5.2438 21.0508C5.24187 20.6743 5.44998 20.328 5.78662 20.1558C6.10752 19.9908 6.51242 20.0089 6.82917 20.2394ZM6.32527 6.40512C6.69882 6.46349 7.00622 6.72805 7.11902 7.08797L7.75912 9.11029L9.78242 9.75039C10.1424 9.86419 10.4069 10.1706 10.4672 10.5441C10.5256 10.9167 10.3699 11.2912 10.0625 11.5101L8.33492 12.7445L8.35247 14.866C8.35637 15.2435 8.14427 15.5897 7.80967 15.761C7.46917 15.9312 7.06842 15.8981 6.76497 15.6754L5.0568 14.4147L3.04516 15.085C2.68524 15.2046 2.29225 15.1103 2.0257 14.8447C1.75914 14.5781 1.66578 14.1832 1.78445 13.8252L2.45561 11.8136L1.19496 10.1064C0.971241 9.80299 0.93817 9.39929 1.10936 9.06269C1.27863 8.72904 1.62301 8.51894 1.99648 8.51894C1.99841 8.51894 4.12486 8.53449 4.12486 8.53449L5.36027 6.80887C5.58587 6.49384 5.96722 6.34542 6.32527 6.40512ZM27.4552 27.5351C27.8268 27.5934 28.1342 27.858 28.249 28.217L28.891 30.2403L30.9143 30.8813C31.2742 30.9951 31.5369 31.3025 31.5972 31.6751C31.6555 32.0476 31.498 32.4221 31.1925 32.641L29.4649 33.8744L29.4824 35.996C29.4863 36.3734 29.2742 36.7197 28.9396 36.8909C28.5991 37.0611 28.1984 37.028 27.8949 36.8053L26.1868 35.5456L24.1751 36.2158C23.8152 36.3364 23.4222 36.2401 23.1557 35.9756C22.8891 35.709 22.7957 35.3141 22.9144 34.9561L23.5856 32.9435L22.3249 31.2363C22.1012 30.9328 22.0681 30.5292 22.2393 30.1926C22.4086 29.8589 22.7529 29.6488 23.1264 29.6488C23.1284 29.6488 25.2548 29.6654 25.2548 29.6654L26.4902 27.9387C26.7157 27.6237 27.0971 27.4754 27.4552 27.5351Z" fill="url(#paint8_linear_2063_43206)"/>
<defs>
<linearGradient id="paint0_linear_2063_43206" x1="17.75" y1="4.80583" x2="8.91345" y2="34.1918" gradientUnits="userSpaceOnUse">
<stop stop-color="#8F7B58" stop-opacity="0"/>
<stop offset="1" stop-color="#EFD0A0"/>
</linearGradient>
<linearGradient id="paint1_linear_2063_43206" x1="34.7087" y1="3.29241" x2="10.9023" y2="27.0989" gradientUnits="userSpaceOnUse">
<stop stop-color="#FFC16C" stop-opacity="0"/>
<stop offset="0.5028" stop-color="#FFC16C" stop-opacity="0.25"/>
<stop offset="1" stop-color="#FFC16C" stop-opacity="0.5"/>
</linearGradient>
<linearGradient id="paint2_linear_2063_43206" x1="35" y1="20.1608" x2="34.9928" y2="21.7146" gradientUnits="userSpaceOnUse">
<stop stop-color="#674E2B" stop-opacity="0.5"/>
<stop offset="1" stop-color="#674E2B"/>
</linearGradient>
<linearGradient id="paint3_linear_2063_43206" x1="24" y1="6.16081" x2="23.9928" y2="7.71454" gradientUnits="userSpaceOnUse">
<stop stop-color="#674E2B" stop-opacity="0.5"/>
<stop offset="1" stop-color="#674E2B"/>
</linearGradient>
<linearGradient id="paint4_linear_2063_43206" x1="36.7501" y1="9.49951" x2="36.7479" y2="13.9998" gradientUnits="userSpaceOnUse">
<stop stop-color="#8B6832" stop-opacity="0.02"/>
<stop offset="1" stop-color="#8B6832" stop-opacity="0.75"/>
</linearGradient>
<linearGradient id="paint5_linear_2063_43206" x1="14" y1="14.1042" x2="13.4877" y2="15.8078" gradientUnits="userSpaceOnUse">
<stop stop-color="#EFD0A0" stop-opacity="0.3"/>
<stop offset="1" stop-color="#EFD0A0"/>
</linearGradient>
<linearGradient id="paint6_linear_2063_43206" x1="21" y1="33.1047" x2="20.4877" y2="34.8082" gradientUnits="userSpaceOnUse">
<stop stop-color="#EFD0A0" stop-opacity="0.3"/>
<stop offset="1" stop-color="#EFD0A0"/>
</linearGradient>
<linearGradient id="paint7_linear_2063_43206" x1="27" y1="20.25" x2="16.4138" y2="13.0716" gradientUnits="userSpaceOnUse">
<stop offset="0.232666" stop-color="#8F7B58" stop-opacity="0"/>
<stop offset="1" stop-color="#EFD0A0"/>
</linearGradient>
<linearGradient id="paint8_linear_2063_43206" x1="12.2501" y1="0.999503" x2="37.7681" y2="30.6507" gradientUnits="userSpaceOnUse">
<stop offset="0.01" stop-color="#FFEBCC"/>
<stop offset="0.135" stop-color="#EBBD6F"/>
<stop offset="0.215" stop-color="#FFEBCC"/>
<stop offset="0.37" stop-color="#F5D49E"/>
<stop offset="0.5" stop-color="#EBBD6F"/>
<stop offset="0.65" stop-color="#FFEBCC"/>
<stop offset="0.885" stop-color="#EBBD6F"/>
<stop offset="1" stop-color="#FFEBCC"/>
</linearGradient>
</defs>
</svg>
