<svg width="41" height="40" viewBox="0 0 41 40" fill="none" xmlns="http://www.w3.org/2000/svg">
<path fill-rule="evenodd" clip-rule="evenodd" d="M34.9512 17.8063H32.5318V33.5318C32.5318 34.1734 32.2769 34.7888 31.8232 35.2425C31.3694 35.6962 30.7541 35.9511 30.1124 35.9511H10.7579C10.1163 35.9511 9.50092 35.6962 9.04721 35.2425C8.5935 34.7888 8.33861 34.1734 8.33861 33.5318V17.8063H5.91932C5.27768 17.8063 4.66231 17.5513 4.2086 17.0977C3.75489 16.6439 3.5 16.0286 3.5 15.3869V6.91932C3.5 6.27768 3.75489 5.66231 4.2086 5.2086C4.66231 4.75489 5.27768 4.5 5.91932 4.5H34.9512C35.5928 4.5 36.2082 4.75489 36.6619 5.2086C37.1156 5.66231 37.3705 6.27768 37.3705 6.91932V15.3869C37.3705 16.0286 37.1156 16.6439 36.6619 17.0977C36.2082 17.5513 35.5928 17.8063 34.9512 17.8063ZM34.9512 15.3869H32.5318V11.7579H33.1367C33.4575 11.7579 33.7651 11.6305 33.9921 11.4036C34.2189 11.1768 34.3464 10.8691 34.3464 10.5483C34.3464 10.2275 34.2189 9.91978 33.9921 9.69292C33.7651 9.46607 33.4575 9.33862 33.1367 9.33862H31.3221H9.54827H7.7338C7.41298 9.33862 7.1053 9.46607 6.87845 9.69292C6.65159 9.91978 6.52414 10.2275 6.52414 10.5483C6.52414 10.8691 6.65159 11.1768 6.87845 11.4036C7.1053 11.6305 7.41298 11.7579 7.7338 11.7579H8.33861V15.3869H5.91932V6.91932H34.9512V15.3869ZM27.2395 24.4594H26.1811V26.2739C26.1811 26.5946 26.0536 26.9023 25.8268 27.1292C25.6 27.3561 25.2923 27.4835 24.9714 27.4835C24.6506 27.4835 24.343 27.3561 24.116 27.1292C23.8892 26.9023 23.7617 26.5946 23.7617 26.2739V22.4936C23.7617 22.2129 23.6503 21.9437 23.4518 21.7452C23.2533 21.5467 22.984 21.4352 22.7033 21.4352C22.4226 21.4352 22.1534 21.5467 21.9549 21.7452C21.7564 21.9437 21.6448 22.2129 21.6448 22.4936V24.0057C21.6464 24.8876 21.312 25.7368 20.7098 26.3808C20.1076 27.025 19.2827 27.4156 18.4028 27.4734C17.523 27.5311 16.6541 27.2517 15.9729 26.6918C15.2916 26.132 14.8491 25.3337 14.7352 24.4594H13.6309C13.31 24.4594 13.0024 24.3319 12.7755 24.1051C12.5487 23.8782 12.4212 23.5705 12.4212 23.2497C12.4212 22.9289 12.5487 22.6212 12.7755 22.3944C13.0024 22.1675 13.31 22.0401 13.6309 22.0401H14.6894V20.2255C14.6894 19.9047 14.8167 19.5971 15.0437 19.3702C15.2705 19.1433 15.5782 19.0159 15.899 19.0159C16.2198 19.0159 16.5275 19.1433 16.7543 19.3702C16.9812 19.5971 17.1086 19.9047 17.1086 20.2255V24.0057C17.1086 24.2865 17.2202 24.5557 17.4186 24.7542C17.6171 24.9526 17.8863 25.0642 18.1671 25.0642C18.4479 25.0642 18.7171 24.9526 18.9156 24.7542C19.1141 24.5557 19.2255 24.2865 19.2255 24.0057V22.4936C19.2241 21.6119 19.5584 20.7627 20.1607 20.1186C20.7629 19.4744 21.5877 19.0838 22.4676 19.026C23.3475 18.9682 24.2163 19.2477 24.8975 19.8076C25.5788 20.3674 26.0213 21.1656 26.1351 22.0401H27.2395C27.5604 22.0401 27.8681 22.1675 28.0949 22.3944C28.3217 22.6212 28.4492 22.9289 28.4492 23.2497C28.4492 23.5705 28.3217 23.8782 28.0949 24.1051C27.8681 24.3319 27.5604 24.4594 27.2395 24.4594Z" fill="url(#paint0_linear_2153_1197)"/>
<defs>
<linearGradient id="paint0_linear_2153_1197" x1="37.3705" y1="20.2255" x2="3.5" y2="20.2255" gradientUnits="userSpaceOnUse">
<stop stop-color="#181411"/>
<stop offset="1" stop-color="#2F281D"/>
</linearGradient>
</defs>
</svg>
