<svg width="39" height="39" viewBox="0 0 39 39" fill="none" xmlns="http://www.w3.org/2000/svg">
<g clip-path="url(#clip0_2153_1218)">
<path fill-rule="evenodd" clip-rule="evenodd" d="M38.75 19.75C38.75 30.2435 30.2435 38.75 19.75 38.75C9.2566 38.75 0.75 30.2435 0.75 19.75C0.75 9.2566 9.2566 0.75 19.75 0.75C30.2435 0.75 38.75 9.2566 38.75 19.75ZM25.699 17.9595H26.2041C27.659 17.9595 28.837 19.2654 28.837 20.8722V29.2259C28.837 30.8354 27.659 32.1413 26.2041 32.1413H13.296C11.8411 32.1413 10.663 30.8354 10.663 29.2259V20.8722C10.663 19.2654 11.8411 17.9595 13.296 17.9595H13.8011V13.9396C13.8011 10.3109 16.4698 7.3587 19.75 7.3587C23.0302 7.3587 25.699 10.3109 25.699 13.9396V17.9595ZM20.9533 27.9198V25.5447C21.6102 25.0991 22.0457 24.2971 22.0457 23.3866C22.0457 21.9861 21.0161 20.8499 19.75 20.8499C18.4839 20.8499 17.4543 21.9861 17.4543 23.3866C17.4543 24.2971 17.8898 25.0991 18.5467 25.5447V27.9198C18.5467 28.6522 19.083 29.251 19.75 29.251C20.417 29.251 20.9533 28.6522 20.9533 27.9198ZM16.4353 13.9396V17.9595H23.0646V13.9396C23.0646 11.9176 21.5778 10.2728 19.75 10.2728C17.9222 10.2728 16.4353 11.9176 16.4353 13.9396Z" fill="url(#paint0_linear_2153_1218)"/>
<path d="M38.75 19.75C38.75 25.5326 25.5326 25.5326 20.5761 20.5761C11.4891 12.3152 0.75 19.75 0.75 19.75C0.75 9.2566 9.2566 0.75 19.75 0.75C30.2435 0.75 38.75 9.2566 38.75 19.75Z" fill="url(#paint1_linear_2153_1218)"/>
</g>
<defs>
<linearGradient id="paint0_linear_2153_1218" x1="19.75" y1="0.75" x2="19.7313" y2="38.75" gradientUnits="userSpaceOnUse">
<stop stop-color="#8B6832"/>
<stop offset="1" stop-color="#FCDD9A"/>
</linearGradient>
<linearGradient id="paint1_linear_2153_1218" x1="21.4022" y1="23.0544" x2="21.4022" y2="13.1413" gradientUnits="userSpaceOnUse">
<stop stop-color="white" stop-opacity="0.3"/>
<stop offset="1" stop-color="white" stop-opacity="0"/>
</linearGradient>
<clipPath id="clip0_2153_1218">
<rect width="38" height="38" fill="white" transform="translate(0.75 0.75)"/>
</clipPath>
</defs>
</svg>
